<?xml version="1.0" encoding="UTF-8"?><svg xmlns="http://www.w3.org/2000/svg" xmlns:xlink="http://www.w3.org/1999/xlink" height="1573.0" preserveAspectRatio="xMidYMid meet" version="1.0" viewBox="259.5 271.5 1602.3 1573.0" width="1602.3" zoomAndPan="magnify"><g><g><path d="M 943.84375 851.832031 L 290.875 851.832031 L 290.875 379.464844 L 943.84375 379.464844 L 943.84375 851.832031" fill="#b1d6e5"/></g><g><path d="M 943.839844 812.640625 L 290.875 812.640625 L 290.875 396.613281 L 943.839844 396.613281 L 943.839844 812.640625" fill="#15151c"/></g><g><path d="M 924.695312 799.527344 L 310.015625 799.527344 L 310.015625 436.464844 L 924.695312 436.464844 L 924.695312 799.527344" fill="#15151e"/></g><g><path d="M 341.257812 436.464844 L 341.257812 799.527344 L 346.246094 799.527344 L 346.246094 436.464844" fill="#fff"/></g><g><path d="M 924.695312 436.320312 L 310.015625 436.320312 L 310.015625 406.375 L 924.695312 406.375 L 924.695312 436.320312" fill="#323660"/></g><g><path d="M 853.550781 421.355469 C 853.550781 426.960938 848.984375 431.527344 843.378906 431.527344 C 837.75 431.527344 833.203125 426.960938 833.203125 421.355469 C 833.203125 415.738281 837.75 411.183594 843.378906 411.183594 C 848.984375 411.183594 853.550781 415.738281 853.550781 421.355469" fill="#ed3947"/></g><g><path d="M 880.320312 421.355469 C 880.320312 426.960938 875.773438 431.527344 870.160156 431.527344 C 864.535156 431.527344 859.996094 426.960938 859.996094 421.355469 C 859.996094 415.738281 864.535156 411.183594 870.160156 411.183594 C 875.773438 411.183594 880.320312 415.738281 880.320312 421.355469" fill="#80cc28"/></g><g><path d="M 906.863281 421.355469 C 906.863281 426.960938 902.308594 431.527344 896.691406 431.527344 C 891.074219 431.527344 886.523438 426.960938 886.523438 421.355469 C 886.523438 415.738281 891.074219 411.183594 896.691406 411.183594 C 902.308594 411.183594 906.863281 415.738281 906.863281 421.355469" fill="#ebb72e"/></g><g><path d="M 335.8125 450.363281 L 317.964844 450.363281 L 317.964844 444.910156 L 335.8125 444.910156 L 335.8125 450.363281" fill="#fff"/></g><g><path d="M 335.8125 468.214844 L 317.964844 468.214844 L 317.964844 462.757812 L 335.8125 462.757812 L 335.8125 468.214844" fill="#fff"/></g><g><path d="M 335.8125 486.0625 L 317.964844 486.0625 L 317.964844 480.605469 L 335.8125 480.605469 L 335.8125 486.0625" fill="#fff"/></g><g><path d="M 335.8125 503.929688 L 317.964844 503.929688 L 317.964844 498.480469 L 335.8125 498.480469 L 335.8125 503.929688" fill="#fff"/></g><g><path d="M 335.8125 521.78125 L 317.964844 521.78125 L 317.964844 516.328125 L 335.8125 516.328125 L 335.8125 521.78125" fill="#fff"/></g><g><path d="M 335.8125 539.640625 L 317.964844 539.640625 L 317.964844 534.179688 L 335.8125 534.179688 L 335.8125 539.640625" fill="#fff"/></g><g><path d="M 335.8125 557.488281 L 317.964844 557.488281 L 317.964844 552.03125 L 335.8125 552.03125 L 335.8125 557.488281" fill="#fff"/></g><g><path d="M 335.8125 575.351562 L 317.964844 575.351562 L 317.964844 569.898438 L 335.8125 569.898438 L 335.8125 575.351562" fill="#fff"/></g><g><path d="M 335.8125 593.199219 L 317.964844 593.199219 L 317.964844 587.75 L 335.8125 587.75 L 335.8125 593.199219" fill="#fff"/></g><g><path d="M 335.8125 611.058594 L 317.964844 611.058594 L 317.964844 605.609375 L 335.8125 605.609375 L 335.8125 611.058594" fill="#fff"/></g><g><path d="M 335.8125 628.910156 L 317.964844 628.910156 L 317.964844 623.460938 L 335.8125 623.460938 L 335.8125 628.910156" fill="#fff"/></g><g><path d="M 335.8125 646.769531 L 317.964844 646.769531 L 317.964844 641.320312 L 335.8125 641.320312 L 335.8125 646.769531" fill="#fff"/></g><g><path d="M 335.8125 664.628906 L 317.964844 664.628906 L 317.964844 659.171875 L 335.8125 659.171875 L 335.8125 664.628906" fill="#fff"/></g><g><path d="M 335.8125 682.480469 L 317.964844 682.480469 L 317.964844 677.03125 L 335.8125 677.03125 L 335.8125 682.480469" fill="#fff"/></g><g><path d="M 335.8125 700.339844 L 317.964844 700.339844 L 317.964844 694.878906 L 335.8125 694.878906 L 335.8125 700.339844" fill="#fff"/></g><g><path d="M 335.8125 718.199219 L 317.964844 718.199219 L 317.964844 712.738281 L 335.8125 712.738281 L 335.8125 718.199219" fill="#fff"/></g><g><path d="M 335.8125 736.050781 L 317.964844 736.050781 L 317.964844 730.589844 L 335.8125 730.589844 L 335.8125 736.050781" fill="#fff"/></g><g><path d="M 335.8125 753.898438 L 317.964844 753.898438 L 317.964844 748.441406 L 335.8125 748.441406 L 335.8125 753.898438" fill="#fff"/></g><g><path d="M 335.8125 771.769531 L 317.964844 771.769531 L 317.964844 766.308594 L 335.8125 766.308594 L 335.8125 771.769531" fill="#fff"/></g><g><path d="M 335.8125 789.621094 L 317.964844 789.621094 L 317.964844 784.160156 L 335.8125 784.160156 L 335.8125 789.621094" fill="#fff"/></g><g><path d="M 424.097656 450.363281 L 354.65625 450.363281 L 354.65625 444.910156 L 424.097656 444.910156 L 424.097656 450.363281" fill="#ed3947"/></g><g><path d="M 496.289062 649.5 L 426.855469 649.5 L 426.855469 644.039062 L 496.289062 644.039062 L 496.289062 649.5" fill="#ed3947"/></g><g><path d="M 453.136719 628.910156 L 426.855469 628.910156 L 426.855469 623.460938 L 453.136719 623.460938 L 453.136719 628.910156" fill="#ed3947"/></g><g><path d="M 380.949219 468.214844 L 354.65625 468.214844 L 354.65625 462.757812 L 380.949219 462.757812 L 380.949219 468.214844" fill="#3bbec5"/></g><g><path d="M 393.59375 486.0625 L 354.65625 486.0625 L 354.65625 480.605469 L 393.59375 480.605469 L 393.59375 486.0625" fill="#3bbec5"/></g><g><path d="M 413.679688 486.0625 L 400.285156 486.0625 L 400.285156 480.605469 L 413.679688 480.605469 L 413.679688 486.0625" fill="#00adef"/></g><g><path d="M 453.640625 664.628906 L 427.351562 664.628906 L 427.351562 659.171875 L 453.640625 659.171875 L 453.640625 664.628906" fill="#3bbec5"/></g><g><path d="M 466.289062 682.480469 L 427.351562 682.480469 L 427.351562 677.03125 L 466.289062 677.03125 L 466.289062 682.480469" fill="#3bbec5"/></g><g><path d="M 486.375 682.480469 L 472.984375 682.480469 L 472.984375 677.03125 L 486.375 677.03125 L 486.375 682.480469" fill="#00adef"/></g><g><path d="M 453.640625 760.109375 L 427.351562 760.109375 L 427.351562 754.648438 L 453.640625 754.648438 L 453.640625 760.109375" fill="#3bbec5"/></g><g><path d="M 466.289062 777.949219 L 427.351562 777.949219 L 427.351562 772.5 L 466.289062 772.5 L 466.289062 777.949219" fill="#3bbec5"/></g><g><path d="M 486.375 777.949219 L 472.984375 777.949219 L 472.984375 772.5 L 486.375 772.5 L 486.375 777.949219" fill="#00adef"/></g><g><path d="M 393.59375 575.351562 L 354.65625 575.351562 L 354.65625 569.898438 L 393.59375 569.898438 L 393.59375 575.351562" fill="#3bbec5"/></g><g><path d="M 413.679688 575.351562 L 400.285156 575.351562 L 400.285156 569.898438 L 413.679688 569.898438 L 413.679688 575.351562" fill="#00adef"/></g><g><path d="M 451.875 450.363281 L 434.011719 450.363281 L 434.011719 444.910156 L 451.875 444.910156 L 451.875 450.363281" fill="#80cc28"/></g><g><path d="M 476.171875 598.660156 L 400.285156 598.660156 L 400.285156 593.199219 L 476.171875 593.199219 L 476.171875 598.660156" fill="#80cc28"/></g><g><path d="M 478.40625 503.929688 L 400.285156 503.929688 L 400.285156 498.480469 L 478.40625 498.480469 L 478.40625 503.929688" fill="#fff"/></g><g><path d="M 630.925781 503.929688 L 517.839844 503.929688 L 517.839844 498.480469 L 630.925781 498.480469 L 630.925781 503.929688" fill="#fff"/></g><g><path d="M 505.925781 503.929688 L 485.84375 503.929688 L 485.84375 498.480469 L 505.925781 498.480469 L 505.925781 503.929688" fill="#fff"/></g><g><path d="M 495.519531 536.910156 L 417.398438 536.910156 L 417.398438 531.449219 L 495.519531 531.449219 L 495.519531 536.910156" fill="#fff"/></g><g><path d="M 648.035156 536.910156 L 534.949219 536.910156 L 534.949219 531.449219 L 648.035156 531.449219 L 648.035156 536.910156" fill="#fff"/></g><g><path d="M 523.042969 536.910156 L 502.957031 536.910156 L 502.957031 531.449219 L 523.042969 531.449219 L 523.042969 536.910156" fill="#fff"/></g><g><path d="M 467.25 513.589844 L 417.398438 513.589844 L 417.398438 519.058594 L 467.25 519.058594 L 467.25 513.589844" fill="#fff"/></g><g><path d="M 476.171875 513.589844 L 476.171875 519.058594 L 495.519531 519.058594 L 495.519531 513.589844 L 476.171875 513.589844" fill="#fff"/></g><g><path d="M 574.378906 519.058594 L 534.949219 519.058594 L 534.949219 513.589844 L 574.378906 513.589844 L 574.378906 519.058594" fill="#fff"/></g><g><path d="M 523.042969 519.058594 L 502.957031 519.058594 L 502.957031 513.589844 L 523.042969 513.589844 L 523.042969 519.058594" fill="#fff"/></g><g><path d="M 531.972656 557.488281 L 417.398438 557.488281 L 417.398438 552.03125 L 531.972656 552.03125 L 531.972656 557.488281" fill="#fff"/></g><g><path d="M 626.457031 557.488281 L 538.667969 557.488281 L 538.667969 552.03125 L 626.457031 552.03125 L 626.457031 557.488281" fill="#fff"/></g><g><path d="M 630.925781 742.988281 L 630.925781 748.441406 L 647.789062 748.441406 L 647.789062 742.988281 L 630.925781 742.988281" fill="#fff"/></g><g><path d="M 530.980469 705.179688 L 481.136719 705.179688 L 481.136719 710.640625 L 530.980469 710.640625 L 530.980469 705.179688" fill="#fff"/></g><g><path d="M 539.914062 705.179688 L 539.914062 710.640625 L 559.257812 710.640625 L 559.257812 705.179688 L 539.914062 705.179688" fill="#fff"/></g><g><path d="M 638.117188 710.640625 L 598.683594 710.640625 L 598.683594 705.179688 L 638.117188 705.179688 L 638.117188 710.640625" fill="#fff"/></g><g><path d="M 586.789062 710.640625 L 566.695312 710.640625 L 566.695312 705.179688 L 586.789062 705.179688 L 586.789062 710.640625" fill="#fff"/></g><g><path d="M 547.59375 725.140625 L 481.132812 725.140625 L 481.132812 730.589844 L 547.59375 730.589844 L 547.59375 725.140625" fill="#fff"/></g><g><path d="M 554.539062 725.140625 L 554.539062 730.589844 L 647.789062 730.589844 L 647.789062 725.140625 L 554.539062 725.140625" fill="#fff"/></g><g><path d="M 509.90625 742.988281 L 481.132812 742.988281 L 481.132812 748.441406 L 509.90625 748.441406 L 509.90625 742.988281" fill="#fff"/></g><g><path d="M 518.332031 742.988281 L 518.332031 748.441406 L 547.59375 748.441406 L 547.59375 742.988281 L 518.332031 742.988281" fill="#fff"/></g><g><path d="M 624.46875 742.988281 L 554.539062 742.988281 L 554.539062 748.441406 L 624.46875 748.441406 L 624.46875 742.988281" fill="#fff"/></g><g><path d="M 673.253906 930.28125 L 512.152344 930.28125 L 528.890625 851.828125 L 690 851.828125 L 673.253906 930.28125" fill="#6097af"/></g><g><path d="M 682.160156 971.070312 C 658.082031 967.761719 672.582031 930.28125 672.582031 930.28125 L 512.152344 930.28125 C 512.152344 930.28125 510.605469 938.171875 509.375 945.160156 C 507.253906 957.320312 504.386719 971.070312 521.722656 971.070312 L 682.160156 971.070312" fill="#6097af"/></g><g><path d="M 687.074219 930.28125 L 525.964844 930.28125 L 542.707031 851.828125 L 703.816406 851.828125 L 687.074219 930.28125" fill="#88b8cc"/></g><g><path d="M 695.976562 971.070312 C 678.671875 967.210938 687.074219 930.28125 687.074219 930.28125 L 525.964844 930.28125 C 525.964844 930.28125 523.539062 942.28125 522.09375 950.679688 C 519.734375 964.410156 523.476562 971.070312 535.550781 971.070312 L 695.976562 971.070312" fill="#88b8cc"/></g><g><path d="M 750.289062 957.109375 L 519.050781 957.109375 L 524.363281 971.070312 L 750.289062 971.070312 C 753.566406 971.070312 756.214844 967.941406 756.214844 964.078125 C 756.214844 960.230469 753.566406 957.109375 750.289062 957.109375" fill="#6097af"/></g><g><path d="M 750.289062 957.109375 L 598.285156 957.109375 C 601.566406 957.109375 604.214844 960.230469 604.214844 964.078125 C 604.214844 967.941406 601.566406 971.070312 598.285156 971.070312 L 750.289062 971.070312 C 753.566406 971.070312 756.214844 967.941406 756.214844 964.078125 C 756.214844 960.230469 753.566406 957.109375 750.289062 957.109375" fill="#9dd6ec"/></g><g><path d="M 684.101562 1017.113281 L 1861.835938 1017.113281 L 1861.835938 971.078125 L 684.101562 971.078125 L 684.101562 1017.113281" fill="#c77d5d"/></g><g><path d="M 684.105469 1017.109375 L 259.488281 1017.109375 L 259.488281 971.070312 L 684.105469 971.070312 L 684.105469 1017.109375" fill="#a55c4a"/></g><g><path d="M 1478.851562 1844.480469 L 1437.210938 1844.480469 L 1437.210938 1017.109375 L 1478.851562 1017.109375 L 1478.851562 1844.480469" fill="#1f2338"/></g><g><path d="M 1437.210938 1844.480469 L 1437.210938 1802.039062 L 1861.835938 1802.039062 L 1861.835938 1844.480469 L 1437.210938 1844.480469" fill="#1f2338"/></g><g><path d="M 1861.835938 1844.480469 L 1820.1875 1844.480469 L 1820.1875 1017.113281 L 1861.835938 1017.113281 L 1861.835938 1844.480469" fill="#1f2338"/></g><g><path d="M 1537.792969 782.6875 C 1537.792969 782.6875 1540.757812 902.691406 1559.007812 964.191406 C 1559.007812 964.191406 1566.875 1051.003906 1635.753906 1015.425781 C 1635.753906 1015.425781 1656.960938 994.097656 1656.910156 789.101562 C 1656.910156 789.101562 1586.339844 724.308594 1537.792969 782.6875" fill="#f78e8c"/></g><g><path d="M 1249.078125 950.800781 C 1249.078125 961.988281 1240 971.070312 1228.820312 971.070312 L 802.261719 971.070312 C 791.070312 971.070312 781.996094 961.988281 781.996094 950.800781 L 732.285156 680.050781 C 732.285156 668.859375 741.363281 659.78125 752.550781 659.78125 L 1179.101562 659.78125 C 1190.300781 659.78125 1199.371094 668.859375 1199.371094 680.050781 L 1249.078125 950.800781" fill="#22377c"/></g><g><path d="M 1225.328125 914.808594 C 1225.328125 924 1217.871094 931.441406 1208.699219 931.441406 L 813.472656 931.441406 C 804.292969 931.441406 796.847656 924 796.847656 914.808594 L 756.039062 692.578125 C 756.039062 683.398438 763.484375 675.949219 772.675781 675.949219 L 1167.890625 675.949219 C 1177.070312 675.949219 1184.519531 683.398438 1184.519531 692.578125 L 1225.328125 914.808594" fill="#172657"/></g><g><path d="M 780.394531 941.480469 L 1467.769531 941.480469 C 1467.769531 941.480469 1487.460938 941.488281 1495.140625 949.328125 L 1514.578125 971.070312 L 787.144531 971.070312 L 780.394531 941.480469" fill="#111c41"/></g><g><path d="M 1495.140625 949.328125 C 1487.460938 941.488281 1467.769531 941.480469 1467.769531 941.480469 L 1081 941.480469 C 1081 941.480469 1100.691406 941.488281 1108.378906 949.328125 L 1127.820312 971.070312 L 1514.578125 971.070312 L 1495.140625 949.328125" fill="#2858b0"/></g><g><path d="M 1383.03125 971.070312 L 1277.5 971.070312 L 1269.171875 956.269531 L 1374.710938 956.269531 L 1383.03125 971.070312" fill="#274495"/></g><g><path d="M 1215.46875 924.128906 L 812.4375 924.128906 L 769.429688 701.699219 L 1172.460938 701.699219 L 1215.46875 924.128906" fill="#15151e"/></g><g><path d="M 787.640625 702.179688 L 830.65625 924.601562 L 835.554688 923.660156 L 792.539062 701.230469" fill="#fff"/></g><g><path d="M 1172.429688 701.609375 L 769.410156 701.609375 L 765.863281 683.269531 L 1168.890625 683.269531 L 1172.429688 701.609375" fill="#323660"/></g><g><path d="M 1127.070312 692.441406 C 1127.75 695.871094 1125.5 698.660156 1122.050781 698.660156 C 1118.609375 698.660156 1115.28125 695.871094 1114.621094 692.441406 C 1113.949219 689 1116.199219 686.199219 1119.640625 686.199219 C 1123.078125 686.199219 1126.421875 689 1127.070312 692.441406" fill="#ed3947"/></g><g><path d="M 1143.488281 692.441406 C 1144.148438 695.871094 1141.910156 698.660156 1138.460938 698.660156 C 1135.019531 698.660156 1131.699219 695.871094 1131.039062 692.441406 C 1130.371094 689 1132.609375 686.199219 1136.050781 686.199219 C 1139.5 686.199219 1142.820312 689 1143.488281 692.441406" fill="#80cc28"/></g><g><path d="M 1159.738281 692.441406 C 1160.410156 695.871094 1158.160156 698.660156 1154.71875 698.660156 C 1151.28125 698.660156 1147.949219 695.871094 1147.28125 692.441406 C 1146.621094 689 1148.871094 686.199219 1152.300781 686.199219 C 1155.75 686.199219 1159.078125 689 1159.738281 692.441406" fill="#ebb72e"/></g><g><path d="M 786.875 710.210938 L 775.9375 710.210938 L 775.289062 706.871094 L 786.226562 706.871094 L 786.875 710.210938" fill="#fff"/></g><g><path d="M 788.996094 721.148438 L 778.050781 721.148438 L 777.410156 717.808594 L 788.347656 717.808594 L 788.996094 721.148438" fill="#fff"/></g><g><path d="M 791.105469 732.089844 L 780.167969 732.089844 L 779.523438 728.738281 L 790.457031 728.738281 L 791.105469 732.089844" fill="#fff"/></g><g><path d="M 793.222656 743.03125 L 782.28125 743.03125 L 781.632812 739.691406 L 792.574219 739.691406 L 793.222656 743.03125" fill="#fff"/></g><g><path d="M 795.335938 753.96875 L 784.398438 753.96875 L 783.75 750.628906 L 794.695312 750.628906 L 795.335938 753.96875" fill="#fff"/></g><g><path d="M 797.453125 764.910156 L 786.515625 764.910156 L 785.867188 761.558594 L 796.804688 761.558594 L 797.453125 764.910156" fill="#fff"/></g><g><path d="M 799.566406 775.851562 L 788.628906 775.851562 L 787.980469 772.5 L 798.917969 772.5 L 799.566406 775.851562" fill="#fff"/></g><g><path d="M 801.6875 786.789062 L 790.742188 786.789062 L 790.09375 783.441406 L 801.039062 783.441406 L 801.6875 786.789062" fill="#fff"/></g><g><path d="M 803.800781 797.71875 L 792.863281 797.71875 L 792.214844 794.378906 L 803.152344 794.378906 L 803.800781 797.71875" fill="#fff"/></g><g><path d="M 805.910156 808.660156 L 794.976562 808.660156 L 794.335938 805.320312 L 805.265625 805.320312 L 805.910156 808.660156" fill="#fff"/></g><g><path d="M 808.03125 819.601562 L 797.089844 819.601562 L 796.4375 816.261719 L 807.382812 816.261719 L 808.03125 819.601562" fill="#fff"/></g><g><path d="M 810.140625 830.539062 L 799.207031 830.539062 L 798.558594 827.199219 L 809.5 827.199219 L 810.140625 830.539062" fill="#fff"/></g><g><path d="M 812.261719 841.480469 L 801.324219 841.480469 L 800.675781 838.140625 L 811.621094 838.140625 L 812.261719 841.480469" fill="#fff"/></g><g><path d="M 814.378906 852.421875 L 803.433594 852.421875 L 802.792969 849.078125 L 813.726562 849.078125 L 814.378906 852.421875" fill="#fff"/></g><g><path d="M 816.488281 863.359375 L 805.550781 863.359375 L 804.90625 860.019531 L 815.84375 860.019531 L 816.488281 863.359375" fill="#fff"/></g><g><path d="M 818.613281 874.300781 L 807.671875 874.300781 L 807.027344 870.960938 L 817.964844 870.960938 L 818.613281 874.300781" fill="#fff"/></g><g><path d="M 820.722656 885.230469 L 809.785156 885.230469 L 809.140625 881.890625 L 820.078125 881.890625 L 820.722656 885.230469" fill="#fff"/></g><g><path d="M 822.835938 896.179688 L 811.898438 896.179688 L 811.253906 892.839844 L 822.191406 892.839844 L 822.835938 896.179688" fill="#fff"/></g><g><path d="M 824.949219 907.109375 L 814.015625 907.109375 L 813.371094 903.769531 L 824.308594 903.769531 L 824.949219 907.109375" fill="#fff"/></g><g><path d="M 827.070312 918.050781 L 816.132812 918.050781 L 815.484375 914.710938 L 826.425781 914.710938 L 827.070312 918.050781" fill="#fff"/></g><g><path d="M 840.960938 710.210938 L 798.410156 710.210938 L 797.769531 706.871094 L 840.316406 706.871094 L 840.960938 710.210938" fill="#ed3947"/></g><g><path d="M 908.785156 832.210938 L 866.242188 832.210938 L 865.597656 828.859375 L 908.136719 828.859375 L 908.785156 832.210938" fill="#ed3947"/></g><g><path d="M 879.90625 819.601562 L 863.808594 819.601562 L 863.15625 816.261719 L 879.265625 816.261719 L 879.90625 819.601562" fill="#ed3947"/></g><g><path d="M 816.636719 721.148438 L 800.53125 721.148438 L 799.886719 717.808594 L 815.996094 717.808594 L 816.636719 721.148438" fill="#3bbec5"/></g><g><path d="M 826.503906 732.089844 L 802.644531 732.089844 L 802.003906 728.738281 L 825.859375 728.738281 L 826.503906 732.089844" fill="#3bbec5"/></g><g><path d="M 880.578125 743.03125 L 832.722656 743.03125 L 832.074219 739.691406 L 879.9375 739.691406 L 880.578125 743.03125" fill="#fff"/></g><g><path d="M 974.015625 743.03125 L 904.738281 743.03125 L 904.09375 739.691406 L 973.367188 739.691406 L 974.015625 743.03125" fill="#fff"/></g><g><path d="M 897.441406 743.03125 L 885.140625 743.03125 L 884.492188 739.691406 L 896.792969 739.691406 L 897.441406 743.03125" fill="#fff"/></g><g><path d="M 894.976562 763.238281 L 847.109375 763.238281 L 846.460938 759.890625 L 894.328125 759.890625 L 894.976562 763.238281" fill="#fff"/></g><g><path d="M 988.40625 763.238281 L 919.128906 763.238281 L 918.484375 759.890625 L 987.757812 759.890625 L 988.40625 763.238281" fill="#fff"/></g><g><path d="M 911.832031 763.238281 L 899.527344 763.238281 L 898.878906 759.890625 L 911.183594 759.890625 L 911.832031 763.238281" fill="#fff"/></g><g><path d="M 874.890625 748.949219 L 844.351562 748.949219 L 845 752.300781 L 875.53125 752.300781 L 874.890625 748.949219" fill="#fff"/></g><g><path d="M 880.355469 748.949219 L 881.003906 752.300781 L 892.855469 752.300781 L 892.207031 748.949219 L 880.355469 748.949219" fill="#fff"/></g><g><path d="M 941.167969 752.300781 L 917.011719 752.300781 L 916.363281 748.949219 L 940.523438 748.949219 L 941.167969 752.300781" fill="#fff"/></g><g><path d="M 909.71875 752.300781 L 897.40625 752.300781 L 896.765625 748.949219 L 909.070312 748.949219 L 909.71875 752.300781" fill="#fff"/></g><g><path d="M 936.636719 866.320312 L 906.097656 866.320312 L 906.746094 869.671875 L 937.28125 869.671875 L 936.636719 866.320312" fill="#fff"/></g><g><path d="M 942.105469 866.320312 L 942.75 869.671875 L 954.601562 869.671875 L 953.957031 866.320312 L 942.105469 866.320312" fill="#fff"/></g><g><path d="M 1002.921875 869.671875 L 978.761719 869.671875 L 978.109375 866.320312 L 1002.269531 866.320312 L 1002.921875 869.671875" fill="#fff"/></g><g><path d="M 971.460938 869.671875 L 959.160156 869.671875 L 958.519531 866.320312 L 970.820312 866.320312 L 971.460938 869.671875" fill="#fff"/></g><g><path d="M 838.804688 732.089844 L 830.601562 732.089844 L 829.953125 728.738281 L 838.164062 728.738281 L 838.804688 732.089844" fill="#00adef"/></g><g><path d="M 884.449219 841.480469 L 868.339844 841.480469 L 867.699219 838.140625 L 883.800781 838.140625 L 884.449219 841.480469" fill="#3bbec5"/></g><g><path d="M 894.3125 852.421875 L 870.457031 852.421875 L 869.8125 849.078125 L 893.660156 849.078125 L 894.3125 852.421875" fill="#3bbec5"/></g><g><path d="M 906.617188 852.421875 L 898.410156 852.421875 L 897.769531 849.078125 L 905.972656 849.078125 L 906.617188 852.421875" fill="#00adef"/></g><g><path d="M 895.761719 899.980469 L 879.652344 899.980469 L 879.011719 896.640625 L 895.109375 896.640625 L 895.761719 899.980469" fill="#3bbec5"/></g><g><path d="M 905.621094 910.910156 L 881.769531 910.910156 L 881.125 907.570312 L 904.972656 907.570312 L 905.621094 910.910156" fill="#3bbec5"/></g><g><path d="M 917.929688 910.910156 L 909.722656 910.910156 L 909.074219 907.570312 L 917.285156 907.570312 L 917.929688 910.910156" fill="#00adef"/></g><g><path d="M 837.082031 786.789062 L 813.222656 786.789062 L 812.574219 783.441406 L 836.433594 783.441406 L 837.082031 786.789062" fill="#3bbec5"/></g><g><path d="M 849.386719 786.789062 L 841.183594 786.789062 L 840.535156 783.441406 L 848.742188 783.441406 L 849.386719 786.789062" fill="#00adef"/></g><g><path d="M 857.976562 710.210938 L 847.035156 710.210938 L 846.386719 706.871094 L 857.328125 706.871094 L 857.976562 710.210938" fill="#80cc28"/></g><g><path d="M 890.441406 801.070312 L 843.941406 801.070312 L 843.296875 797.71875 L 889.792969 797.71875 L 890.441406 801.070312" fill="#80cc28"/></g><g><path d="M 919.742188 775.851562 L 849.550781 775.851562 L 848.902344 772.5 L 919.097656 772.5 L 919.742188 775.851562" fill="#fff"/></g><g><path d="M 977.625 775.851562 L 923.84375 775.851562 L 923.199219 772.5 L 976.976562 772.5 L 977.625 775.851562" fill="#fff"/></g><g><path d="M 949.171875 878.550781 L 908.457031 878.550781 L 909.105469 881.890625 L 949.820312 881.890625 L 949.171875 878.550781" fill="#fff"/></g><g><path d="M 953.429688 878.550781 L 954.078125 881.890625 L 1011.199219 881.890625 L 1010.550781 878.550781 L 953.429688 878.550781" fill="#fff"/></g><g><path d="M 928.199219 889.488281 L 910.578125 889.488281 L 911.21875 892.839844 L 928.847656 892.839844 L 928.199219 889.488281" fill="#fff"/></g><g><path d="M 933.363281 889.488281 L 934.011719 892.839844 L 951.933594 892.839844 L 951.292969 889.488281 L 933.363281 889.488281" fill="#fff"/></g><g><path d="M 1002.339844 889.488281 L 1002.988281 892.839844 L 1013.320312 892.839844 L 1012.671875 889.488281 L 1002.339844 889.488281" fill="#fff"/></g><g><path d="M 998.390625 889.488281 L 955.546875 889.488281 L 956.195312 892.839844 L 999.039062 892.839844 L 998.390625 889.488281" fill="#fff"/></g><g><path d="M 1617.160156 806.488281 C 1635 801.925781 1651.980469 795.394531 1668.335938 787.492188 C 1667.90625 784.15625 1667.507812 780.808594 1667.160156 777.464844 C 1664.171875 750.085938 1667.070312 720.300781 1660.210938 693.390625 C 1650.527344 655.304688 1617.703125 558.769531 1561.257812 619.226562 C 1540.613281 641.335938 1536.046875 672.910156 1530.460938 700.472656 C 1523.183594 736.390625 1518.503906 772.140625 1515.863281 808.476562 C 1549.425781 814.546875 1583.847656 815.027344 1617.160156 806.488281" fill="#984b67"/></g><g><path d="M 301.125 1828.859375 L 259.488281 1828.859375 L 259.488281 1017.109375 L 301.125 1017.109375 L 301.125 1828.859375" fill="#1f2338"/></g><g><path d="M 259.488281 1844.480469 L 259.488281 1802.039062 L 684.105469 1802.039062 L 684.105469 1844.480469 L 259.488281 1844.480469" fill="#1f2338"/></g><g><path d="M 684.105469 1828.859375 L 642.46875 1828.859375 L 642.46875 1017.109375 L 684.105469 1017.109375 L 684.105469 1828.859375" fill="#1f2338"/></g><g><path d="M 1644.214844 790.191406 C 1644.214844 790.191406 1650.25 868.433594 1669.59375 929.59375 C 1669.59375 929.59375 1697.769531 1038.617188 1746.742188 951.222656 C 1746.742188 951.222656 1766.367188 890.667969 1763.429688 794.460938 C 1763.429688 794.460938 1691.710938 730.949219 1644.214844 790.191406" fill="#f78e8c"/></g><g><path d="M 1774.15625 830.507812 C 1781.050781 792.046875 1770.847656 730.855469 1763.722656 692.4375 C 1758.839844 665.996094 1753.550781 648.730469 1742.839844 623.882812 C 1721.164062 573.535156 1639.5625 582.394531 1639.5625 582.394531 C 1615.074219 608.183594 1603.460938 674.902344 1606.007812 713.003906 C 1607.796875 739.839844 1613.917969 815.113281 1615.207031 847.238281 C 1665.25 862.292969 1731.839844 863.179688 1774.15625 830.507812" fill="#984b67"/></g><g><path d="M 1061.570312 1756.460938 L 1064.660156 1657.019531 L 986.742188 1657.019531 L 998.148438 1747.570312 L 1061.570312 1756.460938" fill="#f78e8c"/></g><g><path d="M 1061.570312 1756.460938 L 1079.050781 1844.480469 L 871.757812 1844.480469 C 871.757812 1844.480469 866.492188 1830.988281 882.851562 1819.609375 L 960.53125 1784.078125 L 998.148438 1747.570312 L 1061.570312 1756.460938" fill="#1c0c19"/></g><g><path d="M 994.550781 1330.449219 L 949.332031 1699.898438 C 949.332031 1699.898438 1009.089844 1742.371094 1071.269531 1751.058594 L 1188.429688 1330.449219 L 994.550781 1330.449219" fill="#3e526e"/></g><g><path d="M 1105.769531 912.308594 C 1098.960938 908.53125 1079.460938 901.898438 1071.03125 904.46875 C 1064.199219 906.550781 1051.210938 912.5 1044.480469 915.160156 C 1031.210938 920.398438 1019.410156 928.480469 1007.730469 932.070312 C 986.730469 938.539062 974.101562 944.78125 965.152344 948.988281 C 950.304688 955.980469 937.941406 968.070312 949.191406 970.570312 C 963.527344 973.769531 997.695312 971.519531 1012.109375 972.410156 C 1031.941406 973.671875 1051.820312 972.089844 1071.609375 973.328125 C 1090.109375 974.480469 1111.230469 975.089844 1128.761719 971.519531 C 1155.179688 966.109375 1156.269531 941.558594 1135.628906 928.820312 C 1116.320312 916.910156 1135.628906 928.820312 1105.769531 912.308594" fill="#f78e8c"/></g><g><path d="M 899.542969 1756.460938 L 927.414062 1657.019531 L 849.492188 1657.019531 L 836.117188 1747.570312 L 899.542969 1756.460938" fill="#f78e8c"/></g><g><path d="M 899.542969 1756.460938 L 917.027344 1844.480469 L 709.726562 1844.480469 C 709.726562 1844.480469 704.460938 1830.988281 720.820312 1819.609375 L 798.496094 1784.078125 L 836.117188 1747.570312 L 899.542969 1756.460938" fill="#251224"/></g><g><path d="M 909.226562 1751.0625 L 1134.355469 1335.683594 L 1437.484375 1335.683594 C 1437.484375 1335.683594 1618.878906 1360.792969 1671.289062 1300.125 C 1671.289062 1300.125 1717.125 1237.632812 1688.175781 1083.074219 L 1369.992188 1083.074219 L 1355.664062 1132.734375 L 1063.5625 1152.335938 C 977.238281 1152.335938 960.359375 1224.324219 960.359375 1224.324219 L 787.300781 1699.902344 C 787.300781 1699.902344 847.058594 1742.371094 909.226562 1751.0625" fill="#455c7c"/></g><g><path d="M 1540.324219 460.359375 C 1517.988281 484.316406 1485.113281 519.40625 1453.96875 517.234375 C 1423.90625 515.136719 1415.089844 458.378906 1408.589844 434.398438 C 1406.617188 427.1875 1405.214844 419.851562 1404.410156 412.460938 C 1403.375 402.699219 1401.15625 392.964844 1399.839844 383.347656 L 1399.738281 382.699219 C 1399.328125 379.710938 1399.015625 376.726562 1398.847656 373.761719 C 1398.769531 372.390625 1398.738281 371.007812 1398.703125 369.648438 C 1398.648438 359.75 1400.496094 350.015625 1406.605469 340.53125 C 1418.445312 322.171875 1442.800781 308.539062 1465.730469 307.078125 C 1497.589844 305.039062 1531.933594 326.050781 1546.023438 351.988281 C 1564.070312 385.207031 1568.671875 429.984375 1540.324219 460.359375" fill="#f78e8c"/></g><g><path d="M 1473.402344 503.25 L 1480.726562 552.601562 L 1582.824219 536.320312 L 1567.050781 487.058594 C 1567.050781 487.058594 1541.746094 452.636719 1473.402344 503.25" fill="#f78e8c"/></g><g><path d="M 1443.734375 409.210938 C 1455.253906 424.886719 1445.46875 380 1463.214844 375.1875 C 1475.78125 371.78125 1484.941406 382.132812 1489.382812 393.929688 C 1495.421875 409.984375 1477.519531 413.183594 1477.300781 425.367188 C 1477.144531 433.902344 1493.152344 473.910156 1495.820312 481.695312 C 1504.457031 506.875 1536.496094 509.261719 1556.28125 496.75 C 1573.492188 485.886719 1570.394531 476.429688 1571.222656 470.367188 C 1578.511719 417.851562 1578.148438 417.757812 1577.433594 367.398438 C 1577.101562 345.101562 1576.511719 327.507812 1557.507812 311.316406 C 1546.847656 302.246094 1536.734375 304.390625 1525.539062 298.046875 C 1514.085938 291.5625 1510.757812 281.699219 1496.917969 278.292969 C 1469.402344 271.527344 1458.582031 290.394531 1434.980469 293.277344 C 1419.007812 295.230469 1389.136719 299.238281 1377.308594 306.945312 C 1361.144531 317.46875 1350.824219 330.105469 1358.871094 351.925781 C 1366.648438 373.007812 1418.519531 374.867188 1443.734375 409.210938" fill="#39151d"/></g><g><path d="M 1487.75 387.917969 C 1494.476562 398.964844 1494.421875 415.773438 1485.074219 427.121094 C 1472.390625 442.554688 1458.777344 433.570312 1451.617188 421.359375 C 1445.847656 411.515625 1441.128906 391.65625 1452.511719 380.664062 C 1463.234375 370.304688 1482.246094 378.847656 1487.75 387.917969" fill="#f78e8c"/></g><g><path d="M 1459.351562 387.992188 C 1458.03125 390.507812 1457.5 393.542969 1457.5 396.808594 C 1457.5 402.070312 1458.914062 407.992188 1461.683594 413.144531 C 1464.453125 418.277344 1468.660156 422.75 1474.460938 424.464844 C 1475.792969 424.847656 1477.167969 424.089844 1477.5625 422.769531 C 1477.957031 421.441406 1477.1875 420.054688 1475.859375 419.671875 C 1471.800781 418.5 1468.4375 415.148438 1466.070312 410.769531 C 1463.71875 406.4375 1462.472656 401.164062 1462.484375 396.808594 C 1462.472656 394.105469 1462.972656 391.785156 1463.761719 390.324219 C 1464.398438 389.113281 1463.941406 387.597656 1462.71875 386.949219 C 1461.503906 386.3125 1460.003906 386.769531 1459.351562 387.992188" fill="#592630"/></g><g><path d="M 1474.179688 394.007812 C 1471.773438 394.484375 1468.953125 395.34375 1466.335938 396.734375 C 1463.738281 398.132812 1461.246094 400.050781 1459.953125 402.96875 C 1459.390625 404.230469 1459.964844 405.703125 1461.214844 406.253906 C 1462.476562 406.804688 1463.960938 406.246094 1464.511719 404.984375 C 1465.074219 403.625 1466.632812 402.226562 1468.679688 401.132812 C 1470.714844 400.050781 1473.164062 399.289062 1475.136719 398.898438 C 1476.492188 398.640625 1477.382812 397.328125 1477.109375 395.96875 C 1476.84375 394.625 1475.527344 393.742188 1474.179688 394.007812" fill="#592630"/></g><g><path d="M 1719.105469 599.496094 C 1729.105469 614.863281 1741.835938 618.839844 1741.835938 650.214844 L 1687.292969 1064.484375 L 1453.425781 1064.484375 L 1425.996094 866.167969 L 1355.90625 786.035156 C 1325.492188 675.550781 1355.648438 637.015625 1355.648438 637.015625 C 1370.535156 627.121094 1421.15625 590.757812 1434.554688 579.417969 C 1452.507812 564.246094 1466.558594 553.035156 1477.546875 544.582031 C 1489.152344 535.660156 1508.675781 536.3125 1522.511719 533.488281 C 1536.9375 530.550781 1565.117188 524.726562 1579.085938 524.632812 L 1719.105469 599.496094" fill="#984b67"/></g><g><path d="M 1711.730469 1198.816406 C 1725.800781 1165.785156 1727.476562 1062.207031 1729.613281 994.550781 C 1730.964844 951.535156 1721.691406 889.875 1724.117188 849.777344 C 1726.628906 808.5 1731.449219 765.953125 1740.96875 726.179688 C 1748.941406 692.875 1749.445312 616.46875 1719.117188 599.476562 C 1662.746094 567.921875 1585.824219 637.203125 1526.320312 661.363281 C 1496.679688 673.414062 1471.210938 690.855469 1451.148438 714.523438 C 1437.101562 731.09375 1417.761719 755.351562 1413.980469 777.167969 C 1409.988281 800.246094 1365.996094 814.507812 1368.054688 838.164062 C 1373.796875 903.570312 1360.972656 946.351562 1368.054688 1039.296875 C 1369.140625 1053.328125 1362.914062 1068.957031 1357.257812 1081.394531 C 1352.484375 1091.824219 1346.546875 1101.777344 1339.421875 1110.753906 C 1334.398438 1117.105469 1298.121094 1130.746094 1302.832031 1136.277344 C 1321.980469 1158.785156 1392.460938 1163.996094 1409.859375 1164.796875 C 1451.277344 1166.707031 1464.628906 1205.515625 1491.644531 1232.457031 C 1523.671875 1264.425781 1550.472656 1251.265625 1591.964844 1248.847656 C 1609.308594 1247.835938 1622.144531 1243.296875 1638.640625 1244.125 C 1654.386719 1244.917969 1671.441406 1239.207031 1687.613281 1241.796875" fill="#984b67"/></g><g><path d="M 1255.019531 938.949219 C 1226.449219 937.691406 1197.941406 935.929688 1169.390625 934.519531 C 1143.511719 933.230469 1117.230469 932.339844 1091.488281 935.941406 C 1097.679688 973.128906 1163.679688 990.140625 1192.898438 1001.101562 C 1224.949219 1013.121094 1253.570312 1026.890625 1286.289062 1033.699219 C 1322.21875 1041.171875 1351.960938 1044.730469 1374.429688 1009.320312 C 1385.210938 992.320312 1388.238281 976.328125 1384.261719 962.949219 C 1344.628906 944.191406 1298.878906 940.890625 1255.019531 938.949219" fill="#f78e8c"/></g><g><path d="M 1302.410156 832.53125 C 1302.410156 832.53125 1294.339844 910.601562 1302.410156 974.230469 C 1302.410156 974.230469 1340.449219 1014.558594 1374.429688 1009.320312 C 1374.429688 1009.320312 1404.589844 953.269531 1418.929688 858.089844 C 1418.929688 858.089844 1359.75 782.761719 1302.410156 832.53125" fill="#f78e8c"/></g><g><path d="M 1436.851562 891.261719 C 1450.519531 854.640625 1463.769531 816.699219 1463.660156 777.640625 C 1463.589844 750.75 1455.921875 722.699219 1449.828125 696.339844 C 1437.511719 642.921875 1355.648438 637.019531 1355.648438 637.019531 C 1326.941406 658 1303.570312 721.550781 1299.230469 759.5 C 1296.191406 786.21875 1291.46875 816.789062 1286.980469 848.621094 C 1333.539062 872.398438 1384.761719 885.730469 1436.851562 891.261719" fill="#984b67"/></g><g><path d="M 1475.300781 564.589844 C 1515.710938 564.570312 1557.679688 563.570312 1593.089844 545.648438 C 1594.320312 545.019531 1594.800781 543.519531 1594.179688 542.289062 C 1593.558594 541.058594 1592.058594 540.570312 1590.828125 541.191406 C 1556.839844 558.460938 1515.640625 559.609375 1475.300781 559.589844 C 1473.929688 559.589844 1472.800781 560.710938 1472.800781 562.089844 C 1472.800781 563.46875 1473.929688 564.589844 1475.300781 564.589844" fill="#1d1e32"/></g><g><path d="M 1376.921875 629.878906 C 1388.96875 631.75 1402.300781 640.898438 1413.109375 652.269531 C 1423.949219 663.589844 1432.308594 677.140625 1434.929688 686.980469 C 1438.691406 700.929688 1440.171875 717.378906 1440.171875 736.808594 C 1440.171875 758.898438 1438.261719 784.839844 1435.71875 815.320312 C 1435.609375 816.691406 1436.628906 817.898438 1438 818.011719 C 1439.378906 818.121094 1440.578125 817.109375 1440.699219 815.730469 C 1443.230469 785.230469 1445.160156 759.191406 1445.160156 736.808594 C 1445.160156 717.128906 1443.679688 700.269531 1439.75 685.679688 C 1436.71875 674.550781 1428.011719 660.691406 1416.71875 648.828125 C 1405.410156 637.011719 1391.550781 627.191406 1377.710938 624.949219 C 1376.351562 624.730469 1375.070312 625.660156 1374.851562 627.019531 C 1374.628906 628.378906 1375.558594 629.660156 1376.921875 629.878906" fill="#1d1e32"/></g><g><path d="M 860.132812 1707.660156 C 884.820312 1645.859375 961.929688 1471.128906 988.800781 1410.441406 C 1004.191406 1375.679688 1018.800781 1341.160156 1037.339844 1308.339844 C 1043.398438 1297.609375 1049.109375 1284.441406 1055.699219 1272.101562 C 1062.28125 1259.761719 1069.761719 1248.300781 1079.019531 1240.980469 C 1088.960938 1233.101562 1102.070312 1228.421875 1115.878906 1225.378906 C 1129.691406 1222.328125 1144.148438 1220.910156 1156.761719 1219.300781 C 1185.699219 1215.609375 1218.019531 1217.21875 1248.289062 1216.300781 C 1293.910156 1214.890625 1330.101562 1213.078125 1368.410156 1213.078125 C 1390.210938 1213.078125 1412.710938 1213.660156 1438.058594 1215.238281 C 1439.429688 1215.328125 1440.621094 1214.289062 1440.699219 1212.910156 C 1440.789062 1211.539062 1439.738281 1210.351562 1438.371094 1210.269531 C 1412.921875 1208.679688 1390.300781 1208.089844 1368.410156 1208.089844 C 1329.941406 1208.089844 1293.699219 1209.898438 1248.128906 1211.308594 C 1218.140625 1212.238281 1185.699219 1210.589844 1156.128906 1214.351562 C 1143.621094 1215.949219 1129 1217.378906 1114.800781 1220.511719 C 1100.621094 1223.648438 1086.800781 1228.46875 1075.921875 1237.070312 C 1065.730469 1245.160156 1058.019531 1257.179688 1051.300781 1269.75 C 1044.589844 1282.320312 1038.871094 1295.5 1032.988281 1305.890625 C 1014.269531 1339.039062 999.613281 1373.710938 984.242188 1408.421875 C 957.355469 1469.148438 880.273438 1643.800781 855.5 1705.808594 C 854.988281 1707.089844 855.613281 1708.539062 856.890625 1709.050781 C 858.171875 1709.558594 859.621094 1708.949219 860.132812 1707.660156" fill="#1d1e32"/></g><g><path d="M 1015.730469 1722.578125 C 1054.800781 1571.128906 1066.03125 1541.390625 1093.929688 1419.441406 C 1094.230469 1418.101562 1093.390625 1416.761719 1092.039062 1416.449219 C 1090.699219 1416.148438 1089.359375 1416.980469 1089.058594 1418.328125 C 1061.199219 1540.121094 1050 1569.761719 1010.898438 1721.339844 C 1010.550781 1722.671875 1011.359375 1724.03125 1012.691406 1724.378906 C 1014.019531 1724.710938 1015.378906 1723.921875 1015.730469 1722.578125" fill="#1d1e32"/></g><g><path d="M 1443.746094 409.195312 L 1400.714844 411.023438 L 1400.714844 417.8125 L 1447.761719 412.507812 L 1443.746094 409.195312" fill="#1d1e32"/></g><g><path d="M 1400.863281 406.945312 C 1398.15625 406.945312 1395.652344 407.125 1393.234375 407.628906 C 1391.414062 408 1389.625 408.566406 1387.910156 409.429688 C 1385.351562 410.691406 1382.933594 412.828125 1381.449219 415.53125 C 1379.945312 418.226562 1379.386719 421.203125 1379.398438 424.074219 C 1379.40625 427.613281 1380.144531 431.148438 1381.375 435.0625 C 1382.605469 438.976562 1384.363281 443.269531 1386.625 448.117188 C 1389.003906 453.085938 1391.824219 459.3125 1397.261719 464.40625 C 1399.082031 466.078125 1400.914062 467.542969 1403.15625 468.667969 C 1405.375 469.792969 1408.027344 470.394531 1410.4375 470.363281 C 1412.929688 470.363281 1415.109375 469.886719 1417.347656 469.308594 L 1413.582031 454.832031 C 1411.878906 455.273438 1410.835938 455.410156 1410.4375 455.398438 L 1409.796875 455.253906 C 1409.46875 455.105469 1408.667969 454.578125 1407.40625 453.410156 C 1404.816406 451.097656 1402.386719 446.59375 1400.1875 441.785156 C 1398.105469 437.324219 1396.601562 433.566406 1395.652344 430.566406 C 1394.695312 427.570312 1394.347656 425.316406 1394.359375 424.074219 C 1394.359375 423.148438 1394.515625 422.835938 1394.515625 422.835938 L 1394.265625 422.707031 L 1394.445312 422.917969 L 1394.515625 422.835938 L 1394.265625 422.707031 L 1394.445312 422.917969 C 1394.445312 422.917969 1394.789062 422.632812 1395.863281 422.371094 C 1396.925781 422.109375 1398.640625 421.910156 1400.863281 421.910156 L 1400.863281 406.945312" fill="#1d1e32"/></g><g><path d="M 1813.503906 1400.53125 C 1813.503906 1419.980469 1797.738281 1435.730469 1778.304688 1435.730469 L 1167.230469 1435.730469 C 1147.78125 1435.730469 1132.027344 1419.980469 1132.027344 1400.53125 L 1132.027344 1365.664062 C 1132.027344 1346.210938 1147.78125 1330.453125 1167.230469 1330.453125 L 1778.304688 1330.453125 C 1797.738281 1330.453125 1813.503906 1346.210938 1813.503906 1365.664062 L 1813.503906 1400.53125" fill="#22335a"/></g><g><path d="M 1778.304688 1330.453125 L 1476.382812 1330.453125 C 1495.832031 1330.453125 1511.585938 1346.210938 1511.585938 1365.664062 L 1511.585938 1400.53125 C 1511.585938 1419.980469 1495.832031 1435.730469 1476.382812 1435.730469 L 1778.304688 1435.730469 C 1797.738281 1435.730469 1813.503906 1419.980469 1813.503906 1400.53125 L 1813.503906 1365.664062 C 1813.503906 1346.210938 1797.738281 1330.453125 1778.304688 1330.453125" fill="#192542"/></g><g><path d="M 1657.285156 1435.730469 L 1605.269531 1435.730469 L 1605.269531 1029.492188 L 1657.285156 1029.492188 L 1657.285156 1435.730469" fill="#101729"/></g><g><path d="M 1794.546875 965.539062 C 1794.546875 1000.847656 1765.921875 1029.492188 1730.605469 1029.492188 L 1480.722656 1029.492188 C 1445.394531 1029.492188 1416.769531 1000.847656 1416.769531 965.539062 L 1416.769531 831.707031 C 1416.769531 796.390625 1445.394531 767.753906 1480.722656 767.753906 L 1730.605469 767.753906 C 1765.921875 767.753906 1794.546875 796.390625 1794.546875 831.707031 L 1794.546875 965.539062" fill="#192542"/></g><g><path d="M 1455.511719 966.5 L 1454.820312 832.679688 C 1454.648438 798.449219 1481.398438 770.359375 1515.199219 768.5 L 1515.199219 767.75 L 1480.71875 767.75 C 1445.390625 767.75 1416.769531 796.390625 1416.769531 831.710938 L 1416.769531 965.53125 C 1416.769531 1000.851562 1445.390625 1029.488281 1480.71875 1029.488281 L 1510.429688 1029.488281 C 1479.519531 1025.109375 1455.679688 998.640625 1455.511719 966.5" fill="#22335a"/></g><g><path d="M 1443.328125 1756.460938 L 1394.539062 1756.460938 L 1394.539062 1435.730469 L 1443.328125 1435.730469 L 1443.328125 1756.460938" fill="#151b2f"/></g><g><path d="M 1443.328125 1756.460938 L 1394.539062 1756.460938 L 1394.539062 1687.449219 L 1443.328125 1687.449219 L 1443.328125 1756.460938" fill="#1d2b4c"/></g><g><path d="M 1453.910156 1809.878906 C 1453.910156 1828.988281 1438.421875 1844.480469 1419.308594 1844.480469 C 1400.199219 1844.480469 1384.710938 1828.988281 1384.710938 1809.878906 C 1384.710938 1790.769531 1400.199219 1775.28125 1419.308594 1775.28125 C 1438.421875 1775.28125 1453.910156 1790.769531 1453.910156 1809.878906" fill="#151b2f"/></g><g><path d="M 1433.480469 1809.878906 C 1433.480469 1817.699219 1427.128906 1824.050781 1419.308594 1824.050781 C 1411.480469 1824.050781 1405.140625 1817.699219 1405.140625 1809.878906 C 1405.140625 1802.050781 1411.480469 1795.710938 1419.308594 1795.710938 C 1427.128906 1795.710938 1433.480469 1802.050781 1433.480469 1809.878906" fill="#497389"/></g><g><path d="M 1264.410156 1809.878906 C 1264.410156 1828.988281 1248.921875 1844.480469 1229.800781 1844.480469 C 1210.699219 1844.480469 1195.210938 1828.988281 1195.210938 1809.878906 C 1195.210938 1790.769531 1210.699219 1775.28125 1229.800781 1775.28125 C 1248.921875 1775.28125 1264.410156 1790.769531 1264.410156 1809.878906" fill="#151b2f"/></g><g><path d="M 1243.980469 1809.878906 C 1243.980469 1817.699219 1237.640625 1824.050781 1229.800781 1824.050781 C 1221.980469 1824.050781 1215.640625 1817.699219 1215.640625 1809.878906 C 1215.640625 1802.050781 1221.980469 1795.710938 1229.800781 1795.710938 C 1237.640625 1795.710938 1243.980469 1802.050781 1243.980469 1809.878906" fill="#497389"/></g><g><path d="M 1643.414062 1809.878906 C 1643.414062 1828.988281 1627.929688 1844.480469 1608.800781 1844.480469 C 1589.707031 1844.480469 1574.210938 1828.988281 1574.210938 1809.878906 C 1574.210938 1790.769531 1589.707031 1775.277344 1608.800781 1775.277344 C 1627.929688 1775.277344 1643.414062 1790.769531 1643.414062 1809.878906" fill="#151b2f"/></g><g><path d="M 1622.988281 1809.878906 C 1622.988281 1817.699219 1616.640625 1824.050781 1608.800781 1824.050781 C 1600.980469 1824.050781 1594.640625 1817.699219 1594.640625 1809.878906 C 1594.640625 1802.050781 1600.980469 1795.710938 1608.800781 1795.710938 C 1616.640625 1795.710938 1622.988281 1802.050781 1622.988281 1809.878906" fill="#497389"/></g><g><path d="M 1630.570312 1784.949219 C 1622.949219 1766.390625 1601.390625 1767.851562 1601.390625 1767.851562 L 1434.753906 1748.78125 L 1403.871094 1748.78125 L 1237.222656 1767.851562 C 1237.222656 1767.851562 1215.675781 1766.390625 1208.042969 1784.949219 L 1630.570312 1784.949219" fill="#1d2b4c"/></g></g></svg>